<?xml version="1.0" encoding="UTF-8" standalone="no"?>
<!-- Created with Inkscape (http://www.inkscape.org/) -->

<svg
   
   version="1.1"
   id="svg2283"
   xml:space="preserve"
   width="682.66669"
   height="682.66669"
   viewBox="0 0 682.66669 682.66669"
   xmlns="http://www.w3.org/2000/svg"
   xmlns:svg="http://www.w3.org/2000/svg"><defs
     id="defs2287"><clipPath
       clipPathUnits="userSpaceOnUse"
       id="clipPath2297"><path
         d="M 0,512 H 512 V 0 H 0 Z"
         id="path2295" /></clipPath></defs><g
     id="g2289"
     transform="matrix(1.3333333,0,0,-1.3333333,0,682.66667)"><g
       id="g2291"><g
         id="g2293"
         clip-path="url(#clipPath2297)"><g
           id="g2299"
           transform="translate(497,256)"><path
             d="m 0,0 c 0,-133.101 -107.899,-241 -241,-241 -133.101,0 -241,107.899 -241,241 0,133.101 107.899,241 241,241 C -107.899,241 0,133.101 0,0 Z"
             style="fill:none;stroke:#f1f1f1;stroke-width:30;stroke-linecap:round;stroke-linejoin:round;stroke-miterlimit:10;stroke-dasharray:none;stroke-opacity:1"
             id="path2301" /></g><g
           id="g2303"
           transform="translate(177.1221,483.7256)"><path
             d="M 0,0 C 44.496,-53.137 201.095,-258.561 148.578,-458.449"
             style="fill:none;stroke:#f1f1f1;stroke-width:30;stroke-linecap:round;stroke-linejoin:round;stroke-miterlimit:10;stroke-dasharray:none;stroke-opacity:1"
             id="path2305" /></g><g
           id="g2307"
           transform="translate(493.1436,213.2549)"><path
             d="M 0,0 C -273.178,80.386 -357.757,-83.646 -380.396,-151.046"
             style="fill:none;stroke:#f1f1f1;stroke-width:30;stroke-linecap:round;stroke-linejoin:round;stroke-miterlimit:10;stroke-dasharray:none;stroke-opacity:1"
             id="path2309" /></g><g
           id="g2311"
           transform="translate(25.8042,327.5576)"><path
             d="M 0,0 C 61.334,-23.263 248.769,-75.385 426.958,67.52"
             style="fill:none;stroke:#f1f1f1;stroke-width:30;stroke-linecap:round;stroke-linejoin:round;stroke-miterlimit:10;stroke-dasharray:none;stroke-opacity:1"
             id="path2313" /></g></g></g></g></svg>
