<svg xmlns="http://www.w3.org/2000/svg" width="1em" height="1em" viewBox="0 0 12 12"><path fill="currentColor" fill-rule="evenodd" d="M6 12A6 6 0 1 1 6 0a6 6 0 0 1 0 12M3.324 4.643q0-.47.32-.953q.321-.483.935-.8t1.433-.317q.762 0 1.344.265q.584.265.9.72q.318.457.318.991q0 .422-.18.738q-.182.317-.431.548q-.25.23-.895.775a4 4 0 0 0-.287.27a1 1 0 0 0-.16.213c-.289.667-1.543.592-1.302-.342a1.8 1.8 0 0 1 .363-.535q.225-.23.609-.547q.335-.278.485-.419t.252-.314a.73.73 0 0 0 .103-.377a.85.85 0 0 0-.313-.669q-.312-.272-.806-.272q-.577 0-.85.275q-.273.274-.462.81q-.18.56-.677.56a.7.7 0 0 1-.496-.196q-.203-.195-.203-.424M6 9.75a.75.75 0 1 1 0-1.5a.75.75 0 0 1 0 1.5"/></svg>